<svg xmlns="http://www.w3.org/2000/svg" viewBox="0 0 200 200">
  <defs>
    <linearGradient id="gemGradient" x1="0%" y1="0%" x2="100%" y2="100%">
      <stop offset="0%" stop-color="#1cb0f6" />
      <stop offset="100%" stop-color="#14d2f5" />
    </linearGradient>
    <filter id="glow" x="-50%" y="-50%" width="200%" height="200%">
      <feGaussianBlur stdDeviation="5" result="blur" />
      <feComposite in="SourceGraphic" in2="blur" operator="over" />
    </filter>
  </defs>
  
  <!-- Main gem shape -->
  <path d="M100,20 L160,60 L160,140 L100,180 L40,140 L40,60 Z" fill="url(#gemGradient)" stroke="#fff" stroke-width="2" filter="url(#glow)" />
  
  <!-- Gem highlights -->
  <path d="M100,20 L120,60 L100,100 L80,60 Z" fill="#ffffff" fill-opacity="0.3" />
  <path d="M100,100 L140,80 L130,120 L100,150 Z" fill="#ffffff" fill-opacity="0.2" />
  
  <!-- Sparkles -->
  <circle cx="70" cy="50" r="4" fill="#ffffff" />
  <circle cx="140" cy="70" r="3" fill="#ffffff" />
  <circle cx="60" cy="130" r="3" fill="#ffffff" />
  <circle cx="120" cy="140" r="4" fill="#ffffff" />
  
  <!-- Star on top -->
  <path d="M100,10 L105,20 L115,20 L107,28 L110,38 L100,32 L90,38 L93,28 L85,20 L95,20 Z" fill="#ffffff" />
</svg> 