<svg xmlns="http://www.w3.org/2000/svg" viewBox="0 0 40 30" width="40" height="30">
  <rect width="40" height="30" fill="#FFFFFF"/>
  <g>
    <rect width="40" height="2.31" y="0" fill="#B22234"/>
    <rect width="40" height="2.31" y="4.62" fill="#B22234"/>
    <rect width="40" height="2.31" y="9.23" fill="#B22234"/>
    <rect width="40" height="2.31" y="13.85" fill="#B22234"/>
    <rect width="40" height="2.31" y="18.46" fill="#B22234"/>
    <rect width="40" height="2.31" y="23.08" fill="#B22234"/>
    <rect width="40" height="2.31" y="27.69" fill="#B22234"/>
  </g>
  <rect width="16" height="16.15" fill="#3C3B6E"/>
  <g fill="#FFFFFF">
    <circle cx="2.67" cy="2.02" r="0.85"/>
    <circle cx="8" cy="2.02" r="0.85"/>
    <circle cx="13.33" cy="2.02" r="0.85"/>
    <circle cx="5.33" cy="4.83" r="0.85"/>
    <circle cx="10.67" cy="4.83" r="0.85"/>
    <circle cx="2.67" cy="7.64" r="0.85"/>
    <circle cx="8" cy="7.64" r="0.85"/>
    <circle cx="13.33" cy="7.64" r="0.85"/>
    <circle cx="5.33" cy="10.44" r="0.85"/>
    <circle cx="10.67" cy="10.44" r="0.85"/>
    <circle cx="2.67" cy="13.25" r="0.85"/>
    <circle cx="8" cy="13.25" r="0.85"/>
    <circle cx="13.33" cy="13.25" r="0.85"/>
  </g>
</svg> 