<svg xmlns="http://www.w3.org/2000/svg" viewBox="0 0 64 64" fill="none">
  <!-- Speech bubble background -->
  <path d="M32 4 C16 4 8 12 8 32 C8 52 16 60 32 60 L36 60 L36 64 L40 60 L48 60 C64 60 56 52 56 32 C56 12 48 4 32 4 Z" fill="#58cc02"/>
  
  <!-- Indonesian flag inside -->
  <rect x="20" y="24" width="10" height="5" fill="#ff0000"/>
  <rect x="20" y="29" width="10" height="5" fill="#ffffff"/>
  
  <!-- English flag inside -->
  <rect x="34" y="24" width="10" height="10" fill="#1cb0f6"/>
  <path d="M34 24 L44 34 M44 24 L34 34" stroke="#ffffff" stroke-width="1.5"/>
  <path d="M39 24 L39 34 M34 29 L44 29" stroke="#ffffff" stroke-width="3"/>
  <path d="M39 24 L39 34 M34 29 L44 29" stroke="#1cb0f6" stroke-width="1"/>
  
  <!-- Arrow connecting -->
  <path d="M30 28.5 L34 28.5" stroke="#58cc02" stroke-width="2" stroke-linecap="round"/>
  <path d="M33 26.5 L36 28.5 L33 30.5" fill="#58cc02"/>
</svg> 